<svg xmlns="http://www.w3.org/2000/svg" viewBox="0 0 55.62 67.69"><defs><style>.cls-1{fill:#24003b;}.cls-2{fill:#8b73cf;}</style></defs><title>Fichier 1</title><g id="Calque_2" data-name="Calque 2"><g id="Calque_1-2" data-name="Calque 1"><g id="bottomX"><path class="cls-1" d="M38.08,48.87a4.53,4.53,0,0,1-3.73-2L6.82,7.11A4.53,4.53,0,1,1,14.27,2L41.8,41.76a4.53,4.53,0,0,1-3.72,7.11Z"/><path class="cls-1" d="M10.54,67.69a4.53,4.53,0,0,1-3.72-7.11l29-42a4.53,4.53,0,1,1,7.45,5.15l-29,42A4.53,4.53,0,0,1,10.54,67.69Z"/></g><path class="cls-1" d="M47,59.39H5.35a4.53,4.53,0,1,1,0-9.06H42.5V39.2H18.2a4.53,4.53,0,0,1-4.53-4.53V13.6A4.53,4.53,0,0,1,18.2,9.07H49a4.53,4.53,0,0,1,0,9.06H22.73v12H47a4.53,4.53,0,0,1,4.53,4.53V54.86A4.53,4.53,0,0,1,47,59.39Z"/><path class="cls-2" d="M46.21,58.57H4.53a4.53,4.53,0,1,1,0-9.06H41.68V38.37H17.38a4.53,4.53,0,0,1-4.53-4.53V12.78a4.53,4.53,0,0,1,4.53-4.53H48.13a4.53,4.53,0,0,1,0,9.06H21.91v12h24.3a4.53,4.53,0,0,1,4.53,4.53V54A4.53,4.53,0,0,1,46.21,58.57Z"/><g id="topX"><path class="cls-1" d="M38.24,49.09a4.53,4.53,0,0,1-3.73-2l-.16-.23a4.53,4.53,0,0,1,7.45-5.16L42,42a4.53,4.53,0,0,1-3.72,7.11Z"/><path class="cls-1" d="M44.77,58.55a4.53,4.53,0,0,1-3.73-2l-.37-.54a4.53,4.53,0,1,1,7.45-5.15l.37.54a4.53,4.53,0,0,1-3.72,7.11Z"/><path class="cls-1" d="M51.1,67.69a4.53,4.53,0,0,1-3.73-2l-.16-.23a4.53,4.53,0,1,1,7.45-5.15l.16.23a4.53,4.53,0,0,1-3.72,7.11Z"/><path class="cls-1" d="M39.58,25.69a4.53,4.53,0,0,1-3.72-7.11L47.36,2a4.53,4.53,0,1,1,7.45,5.15L43.31,23.74A4.53,4.53,0,0,1,39.58,25.69Z"/></g></g></g></svg>