<?xml version="1.0" encoding="utf-8"?>
<!-- Generator: Adobe Illustrator 22.1.0, SVG Export Plug-In . SVG Version: 6.00 Build 0)  -->
<svg version="1.1" id="Calque_1" xmlns="http://www.w3.org/2000/svg" xmlns:xlink="http://www.w3.org/1999/xlink" x="0px" y="0px"
	 viewBox="0 0 512 512" style="enable-background:new 0 0 512 512;" xml:space="preserve">
<style type="text/css">
	.st0{fill:#24003B;}
	.st1{fill:url(#SVGID_1_);}
	.st2{fill:url(#SVGID_2_);}
	.st3{fill:#24003B;stroke:url(#SVGID_3_);stroke-width:2;stroke-miterlimit:10;}
	.st4{fill:#8B73CF;stroke:url(#SVGID_4_);stroke-width:0.25;stroke-miterlimit:10;}
</style>
<path class="st0" d="M81.1,357.5c-6,0-11.6-2.7-15.4-7.3L5.5,276.1c-2.5-3.2-2.5-7.6,0-10.8L68,188c6.9-8.5,19.3-9.8,27.8-3
	c0.1,0.1,0.2,0.1,0.3,0.2c8.3,7.2,9.3,19.7,2.2,28.2L52,270.6l0,0l44.1,54.1c6.8,8.2,6.1,20.3-1.7,27.6
	C90.8,355.7,86,357.5,81.1,357.5z"/>
<linearGradient id="SVGID_1_" gradientUnits="userSpaceOnUse" x1="157.535" y1="66.1219" x2="264.0025" y2="66.1219" gradientTransform="matrix(1 0 0 -1 -157.51 335.19)">
	<stop  offset="0" style="stop-color:#49D6A7"/>
	<stop  offset="0.49" style="stop-color:#49D6A7"/>
	<stop  offset="1" style="stop-color:#24003B"/>
</linearGradient>
<path class="st1" d="M83.3,180.5c4.6,0,9.1,1.7,12.6,4.6c8.3,7.2,9.3,19.7,2.2,28.2l-46.3,57.3l0,0l44.2,54.3
	c6.8,8.2,6.1,20.3-1.7,27.6c-3.6,3.3-8.4,5.1-13.3,5.1l0,0c-6,0-11.6-2.7-15.4-7.3L5.5,276.1c-2.5-3.2-2.5-7.6,0-10.8L68.1,188
	c3.8-4.7,9.4-7.4,15.4-7.4 M83.4,177L83.4,177c-7.1,0-13.8,3.2-18.2,8.7L2.7,263c-3.6,4.5-3.6,10.9,0,15.4L63,352.6
	c8.1,10,22.9,11.5,32.9,3.4c0.3-0.3,0.6-0.5,1-0.8c9.2-8.6,10.1-22.9,2-32.6l-42.3-52l44.5-55c8.2-10,7-24.7-2.8-33.2
	c-4.2-3.5-9.5-5.4-15-5.4L83.4,177z"/>
<path class="st0" d="M430.8,180.5c6,0,11.6,2.7,15.4,7.3l60.3,74.2c2.5,3.2,2.5,7.6,0,10.8L444,350.1c-6.9,8.5-19.3,9.8-27.8,3
	c-0.1-0.1-0.2-0.1-0.3-0.2c-8.3-7.2-9.3-19.7-2.2-28.2l46.3-57.3l0,0l-44-54.2c-6.8-8.2-6.1-20.3,1.7-27.6
	C421.2,182.3,425.9,180.5,430.8,180.5z"/>
<linearGradient id="SVGID_2_" gradientUnits="userSpaceOnUse" x1="669.535" y1="66.2308" x2="562.9417" y2="66.2308" gradientTransform="matrix(1 0 0 -1 -157.51 335.19)">
	<stop  offset="0" style="stop-color:#49D6A7"/>
	<stop  offset="0.49" style="stop-color:#49D6A7"/>
	<stop  offset="1" style="stop-color:#24003B"/>
</linearGradient>
<path class="st2" d="M430.8,180.5c6,0,11.6,2.7,15.4,7.3l60.3,74.2c2.5,3.2,2.5,7.6,0,10.8L444,350.1c-6.9,8.5-19.3,9.8-27.8,3
	c-0.1-0.1-0.2-0.1-0.3-0.2c-8.3-7.2-9.3-19.7-2.2-28.2l46.3-57.3l0,0l-44-54.2c-6.8-8.2-6.1-20.3,1.7-27.6
	C421.2,182.3,425.9,180.5,430.8,180.5L430.8,180.5 M430.8,176.9L430.8,176.9c-5.8,0-11.4,2.2-15.7,6.1c-9.2,8.6-10.1,22.9-2,32.6
	l42.3,51.9l-44.5,55c-8.2,10-7,24.7,2.8,33.2c9.9,8.3,24.6,6.9,32.9-3c0.1-0.1,0.2-0.2,0.2-0.3l62.5-77.3c3.6-4.5,3.6-10.9,0-15.4
	L449,185.5C444.5,180.1,437.9,176.9,430.8,176.9L430.8,176.9z"/>
<linearGradient id="SVGID_3_" gradientUnits="userSpaceOnUse" x1="533.2524" y1="79.2" x2="288.2088" y2="79.2" gradientTransform="matrix(1 0 0 -1 -157.51 335.19)">
	<stop  offset="0" style="stop-color:#F88429"/>
	<stop  offset="0.49" style="stop-color:#F88429"/>
	<stop  offset="1" style="stop-color:#24003B"/>
</linearGradient>
<path class="st3" d="M132.1,472L132.1,472h119.2c108.9,0,123.5-65.1,123.5-204.4v-23.1C374.7,105.1,360.1,40,251.2,40H141.4
	c-5.1,0-9.3,4.2-9.3,9.3l0,0v114.8l-0.1,0.1v24c0,5,1.7,9.8,4.9,13.7l55.1,67.8L136.7,338c-3.3,4-5,9-5,14.2L132.1,472z
	 M329.3,263.9c0,119.8-8.5,161.2-77.9,161.2H179v-76.4l38.5-47.6l39.8,48.9c6.9,8.4,19.4,9.7,27.8,2.7c1-0.8,1.9-1.7,2.7-2.7
	c6-7.4,5.9-18-0.2-25.3l-44.8-55.1l46.6-57.7c6.9-8.4,5.7-20.9-2.7-27.9c-8.4-6.9-20.9-5.7-27.9,2.7l-41.6,51.5L179,191V86.9h72.4
	c69.4,0,77.9,41.3,77.9,161.2L329.3,263.9z"/>
<linearGradient id="SVGID_4_" gradientUnits="userSpaceOnUse" x1="477.8999" y1="118.1791" x2="537.9422" y2="14.1728" gradientTransform="matrix(1 0 0 -1 -157.51 335.19)">
	<stop  offset="0" style="stop-color:#74649A"/>
	<stop  offset="0.58" style="stop-color:#24003B"/>
	<stop  offset="1" style="stop-color:#75649B"/>
</linearGradient>
<path class="st4" d="M305.8,349.8L379.7,184c0.8-1.8,2.7-2.9,4.7-2.8l6.6,0.4c2.6,0.2,4.6,2.4,4.5,5.1c0,0.6-0.2,1.1-0.4,1.6
	L321.2,354c-0.8,1.8-2.7,2.9-4.7,2.8l-6.6-0.4c-2.6-0.2-4.6-2.4-4.5-5.1C305.4,350.8,305.6,350.3,305.8,349.8z"/>
</svg>
